<?xml version="1.0" standalone="no"?>
<!DOCTYPE svg PUBLIC "-//W3C//DTD SVG 20010904//EN"
 "http://www.w3.org/TR/2001/REC-SVG-20010904/DTD/svg10.dtd">
<svg version="1.0" xmlns="http://www.w3.org/2000/svg"
 width="107.000000pt" height="107.000000pt" viewBox="0 0 107.000000 107.000000"
 preserveAspectRatio="xMidYMid meet">
<metadata>
Created by potrace 1.11, written by Peter Selinger 2001-2013
</metadata>
<g transform="translate(0.000000,107.000000) scale(0.100000,-0.100000)"
fill="#000000" stroke="none">
<path d="M266 765 c-95 -151 -136 -225 -136 -246 0 -21 12 -41 42 -71 l43 -43
7 42 c6 37 115 229 156 276 31 35 29 36 217 -262 l27 -44 34 54 c29 47 31 57
20 74 -19 29 -236 375 -256 408 l-17 28 -137 -216z"/>
<path d="M660 686 c0 -3 14 -27 31 -55 34 -54 49 -57 49 -10 0 47 -16 69 -50
69 -17 0 -30 -2 -30 -4z"/>
<path d="M803 619 c-2 -33 -24 -73 -109 -206 -34 -53 -60 -83 -71 -83 -12 0
-50 50 -117 155 -54 85 -101 155 -105 155 -8 0 -61 -88 -61 -102 0 -6 6 -19
14 -27 7 -9 66 -101 131 -206 65 -104 122 -196 128 -203 12 -15 21 -1 181 256
121 192 122 198 61 259 -41 41 -49 41 -52 2z"/>
<path d="M284 455 c-9 -36 9 -71 41 -79 40 -10 43 0 13 52 -32 56 -45 62 -54
27z"/>
</g>
</svg>
